<?xml version="1.0" encoding="UTF-8"?>
<svg width="821.24" height="821.24" aria-hidden="true" role="img" version="1.1" viewBox="0 0 36.956 36.956" xmlns="http://www.w3.org/2000/svg">
 <path d="m26.571 5.0899c-0.498 0.498-0.629 0.839-0.728 1.029-0.66 1.266-1.455 1.676-2.78 0.351-0.13-0.13-4.087-4.267-4.741-5.017-0.427-0.49-1.081-0.64-1.584-0.262-0.38 0.286-4.035 3.273-5.035 4.507-0.774 0.955-0.8 2.134-0.079 2.856 0.326 0.326 0.727 0.449 1.151 0.578 0.552 0.169 1.763 0.068 2.47 0.775 1.133 1.133 0.54 2.924-0.917 4.421-1.497 1.457-3.288 2.05-4.421 0.917-0.708-0.708-0.606-1.918-0.775-2.47-0.129-0.424-0.252-0.824-0.578-1.151-0.721-0.721-1.9-0.694-2.856 0.079-1.235 1-4.221 4.655-4.507 5.035-0.379 0.503-0.228 1.156 0.262 1.584 0.75 0.654 4.887 4.611 5.017 4.741 1.324 1.324 0.915 2.12-0.351 2.78-0.19 0.099-0.53 0.229-1.029 0.728a3.7441 3.7441 0 0 0 5.295 5.295c0.498-0.498 0.629-0.839 0.728-1.029 0.66-1.266 1.455-1.676 2.78-0.351 0.13 0.13 4.087 4.267 4.741 5.017 0.427 0.49 1.081 0.64 1.584 0.262 0.38-0.286 4.035-3.273 5.035-4.507 0.774-0.955 0.8-2.134 0.079-2.856-0.326-0.326-0.727-0.449-1.151-0.578-0.552-0.169-1.763-0.068-2.47-0.775-1.133-1.133-0.54-2.924 0.917-4.421 1.497-1.457 3.288-2.05 4.421-0.917 0.708 0.708 0.606 1.918 0.775 2.47 0.129 0.424 0.252 0.824 0.578 1.151 0.721 0.721 1.9 0.694 2.856-0.079 1.235-1 4.221-4.655 4.507-5.035 0.379-0.503 0.228-1.156-0.262-1.584-0.75-0.654-4.887-4.611-5.017-4.741-1.324-1.324-0.915-2.12 0.351-2.78 0.19-0.099 0.53-0.229 1.029-0.728a3.7441 3.7441 0 0 0-5.295-5.295z" fill="none" stroke-width="1"/>
 <style>
   path {
      stroke: light-dark(hsl(201, 96%, 32%), hsl(198, 93%, 60%));
    }
  </style>
</svg>
